<svg xmlns="http://www.w3.org/2000/svg" viewBox="0 0 2100 2970" width="2100" height="2970" preserveAspectRatio="xMidYMid meet" role="img" aria-label="Fenetre en verre depoli posee sur un fond blanc de plantes">
  <!-- ============================================================
       hero.svg  ·  v9  — retour FOND BLANC + anti-artefacts
       - fond blanc, plantes noires
       - verre depoli clair (incolore)
       - fantomes floutes a contraste BAS (0.33) + grain -> pas de banding
       - boutons ronds (icones sombres, sur verre clair)
       ============================================================ -->

  <defs>
    <style>
      .stem  { fill:none; stroke:#141414; stroke-width:7;  stroke-linecap:round; stroke-linejoin:round; }
      .stemT { fill:none; stroke:#141414; stroke-width:5;  stroke-linecap:round; }
      .leaf  { fill:#141414; }
      .leafO { fill:#ffffff; stroke:#141414; stroke-width:5; }
      .vein  { fill:none; stroke:#ffffff; stroke-width:3; stroke-linecap:round; }
      .veinD { fill:none; stroke:#141414; stroke-width:3; stroke-linecap:round; }
      .petal { fill:#141414; }
      .core  { fill:#ffffff; stroke:#141414; stroke-width:5; }
    </style>

    <!-- symboles -->
    <g id="leaf">
      <path class="leaf" d="M0,0 C 36,-48 36,-132 0,-182 C -36,-132 -36,-48 0,0 Z"/>
      <path class="vein" d="M0,-8 L0,-168"/>
      <path class="vein" d="M0,-58 L26,-96"/>
      <path class="vein" d="M0,-58 L-26,-96"/>
      <path class="vein" d="M0,-104 L22,-138"/>
      <path class="vein" d="M0,-104 L-22,-138"/>
    </g>
    <g id="leafO">
      <path class="leafO" d="M0,0 C 36,-48 36,-132 0,-182 C -36,-132 -36,-48 0,0 Z"/>
      <path class="veinD" d="M0,-8 L0,-168"/>
      <path class="veinD" d="M0,-58 L26,-96"/>
      <path class="veinD" d="M0,-58 L-26,-96"/>
    </g>
    <path id="petal" class="petal" d="M0,-20 C 18,-44 18,-96 0,-124 C -18,-96 -18,-44 0,-20 Z"/>
    <g id="bloom">
      <use href="#petal" transform="rotate(0)"/>
      <use href="#petal" transform="rotate(45)"/>
      <use href="#petal" transform="rotate(90)"/>
      <use href="#petal" transform="rotate(135)"/>
      <use href="#petal" transform="rotate(180)"/>
      <use href="#petal" transform="rotate(225)"/>
      <use href="#petal" transform="rotate(270)"/>
      <use href="#petal" transform="rotate(315)"/>
      <circle class="core" cx="0" cy="0" r="26"/>
    </g>
    <g id="bud">
      <path class="leaf" d="M0,-8 C 16,-28 16,-62 0,-84 C -16,-62 -16,-28 0,-8 Z"/>
      <path class="veinD" d="M0,-8 L-9,10"/>
      <path class="veinD" d="M0,-8 L9,10"/>
      <path class="veinD" d="M0,-8 L0,12"/>
    </g>
    <g id="ivy">
      <path class="leaf" d="M0,-170
        C -10,-142 -22,-122 -34,-100
        C -54,-102 -80,-104 -104,-104
        C -92,-64 -74,-22 -50,8
        C -34,14 -14,10 0,-2
        C 14,10 34,14 50,8
        C 74,-22 92,-64 104,-104
        C 80,-104 54,-102 34,-100
        C 22,-122 10,-142 0,-170 Z"/>
      <path class="vein" d="M0,-14 L0,-158"/>
      <path class="vein" d="M0,-14 L-90,-96"/>
      <path class="vein" d="M0,-14 L90,-96"/>
      <path class="vein" d="M0,-14 L-44,0"/>
      <path class="vein" d="M0,-14 L44,0"/>
    </g>

    <!-- toutes les plantes (definies une fois) -->
    <g id="plants">
      <g>
        <animateTransform attributeName="transform" type="rotate"
          values="-2.2 200 2950; 3.0 200 2950; -2.2 200 2950"
          keyTimes="0;0.5;1" calcMode="spline"
          keySplines="0.42 0 0.58 1; 0.42 0 0.58 1" dur="6s" repeatCount="indefinite"/>
        <path class="stem" d="M120,3050 C 220,2600 300,2350 480,2120 C 640,1915 760,1780 900,1650"/>
        <path class="stemT" d="M760,1790 C 745,1720 745,1650 760,1590"/>
        <path class="stemT" d="M880,1665 C 918,1638 945,1608 952,1575"/>
        <use href="#leaf"  transform="translate(200,2760) rotate(-55) scale(1.5)"/>
        <use href="#leaf"  transform="translate(280,2500) rotate(48)  scale(1.4)"/>
        <use href="#leafO" transform="translate(370,2290) rotate(-50) scale(1.4)"/>
        <use href="#leaf"  transform="translate(600,1980) rotate(46)  scale(1.25)"/>
        <use href="#leaf"  transform="translate(730,1830) rotate(-42) scale(1.1)"/>
        <use href="#bloom" transform="translate(900,1638) rotate(6)  scale(1.5)"/>
        <use href="#bloom" transform="translate(760,1585) rotate(-8) scale(1.1)"/>
        <use href="#bud"   transform="translate(953,1572) rotate(22) scale(1.5)"/>
      </g>
      <g>
        <animateTransform attributeName="transform" type="rotate"
          values="2.4 2100 1450; -2.2 2100 1450; 2.4 2100 1450"
          keyTimes="0;0.5;1" calcMode="spline"
          keySplines="0.42 0 0.58 1; 0.42 0 0.58 1" dur="7.2s" begin="-1.5s" repeatCount="indefinite"/>
        <path class="stem" d="M2130,1450 C 1950,1500 1820,1560 1650,1560 C 1500,1560 1400,1620 1280,1660"/>
        <path class="stemT" d="M1400,1620 C 1388,1598 1375,1585 1360,1580"/>
        <use href="#leaf"  transform="translate(1950,1500) rotate(-65)  scale(1.4)"/>
        <use href="#leafO" transform="translate(1820,1558) rotate(-118) scale(1.2)"/>
        <use href="#leaf"  transform="translate(1650,1560) rotate(-60)  scale(1.35)"/>
        <use href="#leaf"  transform="translate(1500,1560) rotate(-120) scale(1.15)"/>
        <use href="#bloom" transform="translate(1278,1655) rotate(-6) scale(1.4)"/>
        <use href="#bloom" transform="translate(1360,1578) rotate(10) scale(1.05)"/>
        <use href="#bud"   transform="translate(1235,1600) rotate(-42) scale(1.4)"/>
      </g>
      <g>
        <animateTransform attributeName="transform" type="rotate"
          values="-2.6 1950 -40; 2.2 1950 -40; -2.6 1950 -40"
          keyTimes="0;0.5;1" calcMode="spline"
          keySplines="0.42 0 0.58 1; 0.42 0 0.58 1" dur="5.6s" begin="-0.8s" repeatCount="indefinite"/>
        <path class="stem" d="M1980,-50 C 1930,220 1985,430 1830,645 C 1720,800 1760,1000 1620,1150"/>
        <path class="stemT" d="M1720,1010 C 1706,1044 1700,1064 1692,1080"/>
        <use href="#leaf"  transform="translate(1948,215) rotate(150) scale(1.35)"/>
        <use href="#leafO" transform="translate(1978,430) rotate(158) scale(1.2)"/>
        <use href="#leaf"  transform="translate(1830,645) rotate(205) scale(1.3)"/>
        <use href="#leaf"  transform="translate(1742,830) rotate(150) scale(1.1)"/>
        <use href="#bloom" transform="translate(1620,1150) rotate(-10) scale(1.25)"/>
        <use href="#bloom" transform="translate(1692,1082) rotate(18)  scale(0.9)"/>
        <use href="#bud"   transform="translate(1578,1082) rotate(202) scale(1.3)"/>
      </g>
      <g>
        <animateTransform attributeName="transform" type="rotate"
          values="-1.4 1850 2970; 2.6 1850 2970; -1.4 1850 2970"
          keyTimes="0;0.5;1" calcMode="spline"
          keySplines="0.4 0 0.6 1; 0.4 0 0.6 1" dur="3.4s" begin="-0.5s" repeatCount="indefinite"/>
        <path class="stemT" d="M1770,2985 C 1795,2600 1755,2300 1698,2060"/>
        <path class="stemT" d="M1855,2985 C 1878,2560 1900,2260 1930,1980"/>
        <path class="stemT" d="M1930,2985 C 1980,2650 2032,2400 2062,2183"/>
        <path class="stemT" d="M2010,2985 C 2060,2680 2100,2470 2122,2305"/>
        <ellipse class="leaf" cx="1698" cy="2040" rx="24" ry="66"/>
        <ellipse class="leaf" cx="1930" cy="1960" rx="25" ry="70"/>
        <ellipse class="leaf" cx="2062" cy="2163" rx="23" ry="60"/>
        <ellipse class="leaf" cx="2122" cy="2285" rx="22" ry="56"/>
      </g>
      <g>
        <animateTransform attributeName="transform" type="rotate"
          values="-1.6 20 20; 1.9 20 20; -1.6 20 20"
          keyTimes="0;0.5;1" calcMode="spline"
          keySplines="0.42 0 0.58 1; 0.42 0 0.58 1" dur="6.5s" begin="-2.6s" repeatCount="indefinite"/>
        <path class="stem" d="M-50,-50 C 150,150 100,450 250,650 C 380,820 300,1050 205,1250"/>
        <path class="stemT" d="M250,650 C 320,690 350,745 415,770"/>
        <use href="#ivy" transform="translate(50,80)    rotate(-132) scale(1.4)"/>
        <use href="#ivy" transform="translate(110,250)  rotate(72)   scale(1.6)"/>
        <use href="#ivy" transform="translate(150,410)  rotate(-112) scale(1.7)"/>
        <use href="#ivy" transform="translate(205,545)  rotate(78)   scale(1.55)"/>
        <use href="#ivy" transform="translate(320,915)  rotate(-120) scale(1.6)"/>
        <use href="#ivy" transform="translate(272,1090) rotate(128)  scale(1.4)"/>
        <use href="#ivy" transform="translate(205,1245) rotate(-158) scale(1.25)"/>
        <use href="#ivy" transform="translate(415,772)  rotate(84)   scale(1.5)"/>
      </g>
    </g>

    <!-- fenetre : geometrie et effets -->
    <clipPath id="winClip"><rect x="56" y="116" width="1988" height="2738" rx="52"/></clipPath>
    <mask id="winOutside">
      <rect x="0" y="0" width="2100" height="2970" fill="#fff"/>
      <rect x="56" y="116" width="1988" height="2738" rx="52" fill="#000"/>
    </mask>
    <filter id="frost" x="-15%" y="-15%" width="130%" height="130%"><feGaussianBlur stdDeviation="42"/></filter>
    <filter id="winShadow" x="-30%" y="-30%" width="160%" height="160%"><feGaussianBlur stdDeviation="34"/></filter>
    <filter id="grain" x="0%" y="0%" width="100%" height="100%">
      <feTurbulence type="fractalNoise" baseFrequency="0.9" numOctaves="2" seed="7" stitchTiles="stitch"/>
      <feColorMatrix type="saturate" values="0"/>
      <feComponentTransfer><feFuncA type="linear" slope="0.035" intercept="0"/></feComponentTransfer>
    </filter>
    <linearGradient id="glassSheen" x1="56" y1="116" x2="2044" y2="2854" gradientUnits="userSpaceOnUse">
      <stop offset="0"    stop-color="#ffffff" stop-opacity="0"/>
      <stop offset="0.32" stop-color="#ffffff" stop-opacity="0"/>
      <stop offset="0.44" stop-color="#ffffff" stop-opacity="0.14"/>
      <stop offset="0.52" stop-color="#ffffff" stop-opacity="0.02"/>
      <stop offset="0.62" stop-color="#ffffff" stop-opacity="0.06"/>
      <stop offset="0.70" stop-color="#ffffff" stop-opacity="0"/>
      <stop offset="1"    stop-color="#ffffff" stop-opacity="0"/>
    </linearGradient>
  </defs>

  <!-- 1 · fond A4 blanc -->
  <rect x="0" y="0" width="2100" height="2970" fill="#ffffff"/>

  <!-- 2 · plantes NETTES, seulement hors de la fenetre -->
  <use href="#plants" mask="url(#winOutside)"/>


  <!-- 3 · ombre portee (tablette posee) — masquee pour n'apparaitre qu'AUTOUR (pas sous le verre) -->
  <rect x="56" y="144" width="1988" height="2738" rx="52" fill="#0e0f13" opacity="0.26" filter="url(#winShadow)" mask="url(#winOutside)"/>

  <!-- 4 · verre depoli clair : blur BAS CONTRASTE + voile blanc leger + reflet + grain -->
  <g clip-path="url(#winClip)">
    <use href="#plants" filter="url(#frost)" opacity="0.42"/>
    <rect x="56" y="116" width="1988" height="2738" fill="#ffffff" opacity="0.05"/>
    <rect x="56" y="116" width="1988" height="2738" fill="url(#glassSheen)"/>
    <rect x="56" y="116" width="1988" height="2738" fill="#000000" filter="url(#grain)"/>
  </g>

  <!-- 5 · liseres (verre) -->
  <rect x="56" y="116" width="1988" height="2738" rx="52" fill="none" stroke="#8b909a" stroke-opacity="0.55" stroke-width="2"/>
  <rect x="57.5" y="117.5" width="1985" height="2735" rx="50.5" fill="none" stroke="#ffffff" stroke-opacity="0.5" stroke-width="1.5"/>

  <!-- 6 · boutons ronds : minimize / plein-ecran / close -->
  <g stroke-linecap="round" stroke-linejoin="round">
    <circle cx="1796" cy="192" r="27" fill="#ffffff" fill-opacity="0.5" stroke="#aeb3bd" stroke-opacity="0.6" stroke-width="1.5"/>
    <path d="M1787,192 L1805,192" fill="none" stroke="#454a54" stroke-opacity="0.9" stroke-width="2.4"/>

    <circle cx="1888" cy="192" r="27" fill="#ffffff" fill-opacity="0.5" stroke="#aeb3bd" stroke-opacity="0.6" stroke-width="1.5"/>
    <g fill="none" stroke="#454a54" stroke-opacity="0.9" stroke-width="2.4">
      <path d="M1880,187 L1880,183 L1884,183"/>
      <path d="M1896,187 L1896,183 L1892,183"/>
      <path d="M1880,197 L1880,201 L1884,201"/>
      <path d="M1896,197 L1896,201 L1892,201"/>
    </g>

    <circle cx="1980" cy="192" r="27" fill="#ffffff" fill-opacity="0.5" stroke="#aeb3bd" stroke-opacity="0.6" stroke-width="1.5"/>
    <g fill="none" stroke="#454a54" stroke-opacity="0.9" stroke-width="2.4">
      <path d="M1974,186 L1986,198"/>
      <path d="M1974,198 L1986,186"/>
    </g>
  </g>

  <!-- README page -->
  <linearGradient id="fade2" gradientUnits="userSpaceOnUse" x1="0" y1="1000" x2="0" y2="2000"><stop offset="0" stop-color="#fff"/><stop offset="0.58" stop-color="#fff"/><stop offset="1" stop-color="#000"/></linearGradient>
  <mask id="fade2m" maskUnits="userSpaceOnUse" x="0" y="0" width="2100" height="2970"><rect width="2100" height="2970" fill="url(#fade2)"/></mask>
  <g clip-path="url(#winClip)" font-family="Consolas,'DejaVu Sans Mono','Liberation Mono','Courier New',monospace" font-size="14" fill="#333333" xml:space="preserve">
    <text x="1575" y="226.1" xml:space="preserve">                    .   .</text>
    <text x="1575" y="244.0" xml:space="preserve">                 ``,^^^^,^'`.</text>
    <text x="1575" y="262.0" xml:space="preserve">              `'^^===++===+^^:`</text>
    <text x="1575" y="279.9" xml:space="preserve">            `,-~==*oooCoooc+=~-^`.</text>
    <text x="1575" y="297.8" xml:space="preserve">           :,-=+*CCQ0Q0Q0QOCc+=-,,</text>
    <text x="1575" y="315.7" xml:space="preserve">          `,^~+coO0Cc+c+c*#QCc*=-,:</text>
    <text x="1575" y="333.6" xml:space="preserve">          .^~=+cCQ0:08&amp;&amp;#^C0Oo*=~-'</text>
    <text x="1575" y="351.6" xml:space="preserve">           ,^=*oCQ#c+Q%0c~#QOo*=-,`</text>
    <text x="1575" y="369.5" xml:space="preserve">           .^-=*oCO00*C*O0QCoc+-,'</text>
    <text x="1575" y="387.4" xml:space="preserve">            '^~=+*coCOOOCooc+=~~'.</text>
    <text x="1575" y="405.3" xml:space="preserve">             ',^-~+=*c**c+=~-^,,</text>
    <text x="1575" y="423.2" xml:space="preserve">               .:,---^-^-~^^,`</text>
    <text x="1575" y="441.2" xml:space="preserve">                    .. ^,</text>
    <text x="1575" y="459.1" xml:space="preserve">                       =.</text>
    <text x="1575" y="477.0" xml:space="preserve">                       +</text>
    <text x="1575" y="494.9" xml:space="preserve">                      ~`</text>
    <text x="1575" y="512.8" xml:space="preserve">                     .=</text>
    <text x="1575" y="530.8" xml:space="preserve">                     =</text>
    <text x="1575" y="548.7" xml:space="preserve">                    ,c.</text>
    <text x="1575" y="566.6" xml:space="preserve">                    =0O=.</text>
    <text x="1575" y="584.5" xml:space="preserve">                    'Coc+`</text>
    <text x="1575" y="602.4" xml:space="preserve">                    ~:~==-</text>
    <text x="1575" y="620.4" xml:space="preserve">                   -:  `,^`</text>
    <text x="1575" y="638.3" xml:space="preserve">                  ,       .</text>
  </g>
  <g clip-path="url(#winClip)" font-family="Consolas,'DejaVu Sans Mono','Liberation Mono','Courier New',monospace" font-size="12" fill="#333333" xml:space="preserve">
    <text x="1715" y="1703.8" xml:space="preserve">            `    ':</text>
    <text x="1715" y="1719.2" xml:space="preserve">            `=+Cc=..</text>
    <text x="1715" y="1734.5" xml:space="preserve">            :--O+^~.</text>
    <text x="1715" y="1749.9" xml:space="preserve">            :,=Q0~',.</text>
    <text x="1715" y="1765.3" xml:space="preserve">            .=coQ+*'</text>
    <text x="1715" y="1780.6" xml:space="preserve">            ^^-*#-^-'</text>
    <text x="1715" y="1796.0" xml:space="preserve">           ``^oO%C+'`</text>
    <text x="1715" y="1811.3" xml:space="preserve">            ^+-=#,~=:</text>
    <text x="1715" y="1826.7" xml:space="preserve">           ::^*0%O=::.</text>
    <text x="1715" y="1842.1" xml:space="preserve">            ^*==0^*+'</text>
    <text x="1715" y="1857.4" xml:space="preserve">          .-^-*0%o=,-'</text>
    <text x="1715" y="1872.8" xml:space="preserve">          ``~cc*Q+c+'`</text>
    <text x="1715" y="1888.1" xml:space="preserve">          .~~=+Q#*=-~'</text>
    <text x="1715" y="1903.5" xml:space="preserve">          :'=ooCOoo+,:</text>
    <text x="1715" y="1918.9" xml:space="preserve">          '=+=+Q0*++=`</text>
    <text x="1715" y="1934.2" xml:space="preserve">         ',,=COQOOo+^^.</text>
    <text x="1715" y="1949.6" xml:space="preserve">          :=*++QO***='`</text>
    <text x="1715" y="1964.9" xml:space="preserve">         ^-^*CQ0QQC*=-.</text>
    <text x="1715" y="1980.3" xml:space="preserve">        ..,+*c*OOocc+^,</text>
    <text x="1715" y="1995.7" xml:space="preserve">         ^~~oOQ##QOc=~:</text>
    <text x="1715" y="2011.0" xml:space="preserve">        ``,+cooo0ooc*+^</text>
    <text x="1715" y="2026.4" xml:space="preserve">         ,==cC0#80Oo*~.</text>
    <text x="1715" y="2041.7" xml:space="preserve">          '=coC*&amp;cOC=`,^</text>
    <text x="1715" y="2057.1" xml:space="preserve">        .`. '~o080*,-=='</text>
    <text x="1715" y="2072.5" xml:space="preserve">         :~~~^: **`*c*-</text>
    <text x="1715" y="2087.8" xml:space="preserve">          .,+coCc%oQO- .:-`</text>
    <text x="1715" y="2103.2" xml:space="preserve">          '--~+cO##+`.-==,</text>
    <text x="1715" y="2118.5" xml:space="preserve">           .-+c+-'%.^cc*-</text>
    <text x="1715" y="2133.9" xml:space="preserve">           ,',=COQ#QQQc: ',^</text>
    <text x="1715" y="2149.3" xml:space="preserve">           .~=~~~*O8+:.^==~.</text>
    <text x="1715" y="2164.6" xml:space="preserve">            .-*cc+'&amp;.~ccc=.</text>
    <text x="1715" y="2180.0" xml:space="preserve">           :^:^+OQQ8OQQo, `',</text>
    <text x="1715" y="2195.3" xml:space="preserve">            ,===--*#O=:`^~=~.</text>
    <text x="1715" y="2210.7" xml:space="preserve">           ` ,*ccc:C='+cc*-.</text>
    <text x="1715" y="2226.1" xml:space="preserve">           :-,:=OQQ#QQQC+' .'`</text>
    <text x="1715" y="2241.4" xml:space="preserve">            -===^-c%0c-':^=~,</text>
    <text x="1715" y="2256.8" xml:space="preserve">          .  ~*cc+.Q^`~*c+='</text>
    <text x="1715" y="2272.1" xml:space="preserve">          `~,`,cOQC%cOOCc^. ..</text>
    <text x="1715" y="2287.5" xml:space="preserve">           ,==~,^c08#O+,':-~^</text>
    <text x="1715" y="2302.9" xml:space="preserve">            -+c*+`:% `-+*==:</text>
    <text x="1715" y="2318.2" xml:space="preserve">         ,^' ,cCQO*O=OCoc-.</text>
    <text x="1715" y="2333.6" xml:space="preserve">          -=~^'-C#8%00c-''^-,</text>
    <text x="1715" y="2348.9" xml:space="preserve">          .=+c*~.`#=''^+==='</text>
    <text x="1715" y="2364.3" xml:space="preserve">        ::..~coCo'8'*occ*-.</text>
    <text x="1715" y="2379.7" xml:space="preserve">        .~+^:,c000800QC~``',`</text>
    <text x="1715" y="2395.0" xml:space="preserve">         '=+*=,'~Q0*~,,-==~'</text>
    <text x="1715" y="2410.4" xml:space="preserve">       .  '*coo*.O^'=cc*+-.</text>
    <text x="1715" y="2425.7" xml:space="preserve">       --,`.=OQQC8cOQCo=:.':</text>
    <text x="1715" y="2441.1" xml:space="preserve">        ~==~:'=O%8#0c~^,=~-</text>
    <text x="1715" y="2456.5" xml:space="preserve">        .=+c**: ~O.`-+*+=^</text>
    <text x="1715" y="2471.8" xml:space="preserve">      ,`  ~cCCO=c*+Oooc+: ..</text>
    <text x="1715" y="2487.2" xml:space="preserve">      :~=,''+Q008#00O*^'^--</text>
    <text x="1715" y="2502.5" xml:space="preserve">       ,==++^`^+&amp;o=^^====-</text>
    <text x="1715" y="2517.9" xml:space="preserve">        ,*cocc:.&amp; ^ccc*+^ .</text>
    <text x="1715" y="2533.3" xml:space="preserve">    `^'. `=COQQ*%cQOCo=,,-,</text>
    <text x="1715" y="2548.6" xml:space="preserve">     '~+~^'`~C#%8#0c+~~==-</text>
    <text x="1715" y="2564.0" xml:space="preserve">      '~++*+^ .+Q'`=*c*+-</text>
    <text x="1715" y="2579.3" xml:space="preserve">       .~*cooC,~C^OCoc*^`,^</text>
    <text x="1715" y="2594.7" xml:space="preserve">    ^:'. '+CQ00Q%00QC+-~=~</text>
    <text x="1715" y="2610.1" xml:space="preserve">     ^~+~^:`^*O#8O*~~*==~'</text>
    <text x="1715" y="2625.4" xml:space="preserve">      :=+*c*=' ^0 ^oco**:`^</text>
    <text x="1715" y="2640.8" xml:space="preserve">       .-*coCO*,%~OQOo*^--,</text>
    <text x="1715" y="2656.1" xml:space="preserve">    ,'`  `-oO000&amp;#00c+=~+=</text>
    <text x="1715" y="2671.5" xml:space="preserve">    .^~+-^,``^+o%C-:++c*+:</text>
    <text x="1715" y="2686.9" xml:space="preserve">      :~=+c+*-` o+'Cooc*^</text>
    <text x="1715" y="2702.2" xml:space="preserve">        ^+cooCO*=QOQQOo:</text>
    <text x="1715" y="2717.6" xml:space="preserve">          :~oQ00#&amp;##O-</text>
    <text x="1715" y="2732.9" xml:space="preserve">             `,~+QC'</text>
    <text x="1715" y="2748.3" xml:space="preserve">                 :#</text>
    <text x="1715" y="2763.7" xml:space="preserve">                  O-</text>
    <text x="1715" y="2779.0" xml:space="preserve">                  :o</text>
  </g>
  <g clip-path="url(#winClip)" font-family="Consolas,'DejaVu Sans Mono','Liberation Mono','Courier New',monospace" font-size="11" fill="#333333" xml:space="preserve" mask="url(#fade2m)">
    <text x="1575" y="1012.7" xml:space="preserve">       ..</text>
    <text x="1575" y="1026.8" xml:space="preserve">     ````.:</text>
    <text x="1575" y="1040.8" xml:space="preserve">      ,``,</text>
    <text x="1575" y="1054.9" xml:space="preserve">      ,``,</text>
    <text x="1575" y="1069.0" xml:space="preserve"> `    ,'',</text>
    <text x="1575" y="1083.1" xml:space="preserve"> `:    -^`</text>
    <text x="1575" y="1097.2" xml:space="preserve">   :.  ~~      .</text>
    <text x="1575" y="1111.2" xml:space="preserve">    -:,+~    `:</text>
    <text x="1575" y="1125.3" xml:space="preserve">   `-^-+c:  :`</text>
    <text x="1575" y="1139.4" xml:space="preserve"> :. ===+**,^</text>
    <text x="1575" y="1153.5" xml:space="preserve">  '`.+oc~^,^`</text>
    <text x="1575" y="1167.6" xml:space="preserve">   .::o+==~=  '.</text>
    <text x="1575" y="1181.6" xml:space="preserve">   .-,^=cc*'.:</text>
    <text x="1575" y="1195.7" xml:space="preserve"> ` .=-~==o:`'</text>
    <text x="1575" y="1209.8" xml:space="preserve"> `: ,**c+~^-</text>
    <text x="1575" y="1223.9" xml:space="preserve">   :.:C+~--~`</text>
    <text x="1575" y="1238.0" xml:space="preserve">    -^=**+=~ `:</text>
    <text x="1575" y="1252.0" xml:space="preserve">   `-^--*C~ :`</text>
    <text x="1575" y="1266.1" xml:space="preserve"> :. ===+**,^</text>
    <text x="1575" y="1280.2" xml:space="preserve">  '`.+oc~^,-`</text>
    <text x="1575" y="1294.3" xml:space="preserve">   .::o+==~=  '.</text>
    <text x="1575" y="1308.4" xml:space="preserve">   .-,^=cc*'.:</text>
    <text x="1575" y="1322.4" xml:space="preserve"> ` .=-~==o:`'</text>
    <text x="1575" y="1336.5" xml:space="preserve"> `: ,**c+~^-</text>
    <text x="1575" y="1350.6" xml:space="preserve">   :.:C+~--~`</text>
    <text x="1575" y="1364.7" xml:space="preserve">    -^=**+=~ `:</text>
    <text x="1575" y="1378.8" xml:space="preserve">   `-^--+C~ :`</text>
    <text x="1575" y="1392.8" xml:space="preserve"> :. ===+**,^</text>
    <text x="1575" y="1406.9" xml:space="preserve">  ''.+oc~^,-`</text>
    <text x="1575" y="1421.0" xml:space="preserve">   .::o+==~=</text>
    <text x="1575" y="1435.1" xml:space="preserve">   .-,^=cc*'</text>
    <text x="1575" y="1449.2" xml:space="preserve">   .=-~==o:</text>
    <text x="1575" y="1463.2" xml:space="preserve">    ,**ccoo</text>
    <text x="1575" y="1477.3" xml:space="preserve">     :oOQ0#`</text>
    <text x="1575" y="1491.4" xml:space="preserve">      `#*c~</text>
    <text x="1575" y="1505.5" xml:space="preserve">      .0</text>
    <text x="1575" y="1519.6" xml:space="preserve">      .0</text>
    <text x="1575" y="1533.6" xml:space="preserve">       #</text>
    <text x="1575" y="1547.7" xml:space="preserve">       #</text>
    <text x="1575" y="1561.8" xml:space="preserve">       #</text>
    <text x="1575" y="1575.9" xml:space="preserve">       #</text>
    <text x="1575" y="1590.0" xml:space="preserve">       0.</text>
    <text x="1575" y="1604.0" xml:space="preserve">       O'</text>
    <text x="1575" y="1618.1" xml:space="preserve">       C:</text>
    <text x="1575" y="1632.2" xml:space="preserve">       o^</text>
    <text x="1575" y="1646.3" xml:space="preserve">       *-</text>
    <text x="1575" y="1660.4" xml:space="preserve">       +=</text>
    <text x="1575" y="1674.4" xml:space="preserve">       ~+</text>
    <text x="1575" y="1688.5" xml:space="preserve">       -c</text>
    <text x="1575" y="1702.6" xml:space="preserve">       ^o</text>
    <text x="1575" y="1716.7" xml:space="preserve">       :O</text>
    <text x="1575" y="1730.8" xml:space="preserve">       'Q</text>
    <text x="1575" y="1744.8" xml:space="preserve">       `0</text>
    <text x="1575" y="1758.9" xml:space="preserve">       .#</text>
    <text x="1575" y="1773.0" xml:space="preserve">        %</text>
    <text x="1575" y="1787.1" xml:space="preserve">        8</text>
    <text x="1575" y="1801.2" xml:space="preserve">        8</text>
    <text x="1575" y="1815.2" xml:space="preserve">        8</text>
    <text x="1575" y="1829.3" xml:space="preserve">        8</text>
    <text x="1575" y="1843.4" xml:space="preserve">        8</text>
    <text x="1575" y="1857.5" xml:space="preserve">        8</text>
    <text x="1575" y="1871.6" xml:space="preserve">        8</text>
    <text x="1575" y="1885.6" xml:space="preserve">        8</text>
    <text x="1575" y="1899.7" xml:space="preserve">        8</text>
    <text x="1575" y="1913.8" xml:space="preserve">        %</text>
    <text x="1575" y="1927.9" xml:space="preserve">       .#</text>
    <text x="1575" y="1942.0" xml:space="preserve">       '0</text>
    <text x="1575" y="1956.0" xml:space="preserve">       :O</text>
    <text x="1575" y="1970.1" xml:space="preserve">       ^o</text>
    <text x="1575" y="1984.2" xml:space="preserve">       -*</text>
    <text x="1575" y="1998.3" xml:space="preserve">       ::</text>
  </g>
  <g clip-path="url(#winClip)" font-family="Consolas,'DejaVu Sans Mono','Liberation Mono','Courier New',monospace" font-size="12" fill="#333333" xml:space="preserve">
    <text x="70" y="373.8" xml:space="preserve">                                                    :`</text>
    <text x="70" y="389.2" xml:space="preserve">                                                   -~:</text>
    <text x="70" y="404.5" xml:space="preserve">                                                  ~+=^       '</text>
    <text x="70" y="419.9" xml:space="preserve">                                        :        ,co*,    '-~:</text>
    <text x="70" y="435.3" xml:space="preserve">                                      :~-        +OOc  ,--:</text>
    <text x="70" y="450.6" xml:space="preserve">               `           :-.      `===,        ~#Q=--`</text>
    <text x="70" y="466.0" xml:space="preserve">            .,~:        .^==^      `ccc+       '^-=:</text>
    <text x="70" y="481.3" xml:space="preserve">           ^+=~        ,*c*~       cQOc.  `^---'</text>
    <text x="70" y="496.7" xml:space="preserve">         .*cc*'       -OOo~        0#o-^^^^Q0Qo=,.</text>
    <text x="70" y="512.1" xml:space="preserve">         cQOc'        #0c^:,-~~^^^^,`       ^cCcc*-'</text>
    <text x="70" y="527.4" xml:space="preserve">        `%#c^^^~c*-^^^-^,'` `Q0O+,            .:^^-~-'</text>
    <text x="70" y="542.8" xml:space="preserve">  ^^^^^^,'.    .O0Qc^        .=Coc*^                 .</text>
    <text x="70" y="558.1" xml:space="preserve">                 ~Coc+,        .^=+=~`</text>
  </g>
  <g clip-path="url(#winClip)" font-family="Consolas,'DejaVu Sans Mono','Liberation Mono','Courier New',monospace" font-size="12" fill="#333333" xml:space="preserve">
    <text x="110" y="2063.8" xml:space="preserve">                    .   .</text>
    <text x="110" y="2079.2" xml:space="preserve">                 ``,^^^^,^'`.</text>
    <text x="110" y="2094.5" xml:space="preserve">              `'^^===++===+^^:`</text>
    <text x="110" y="2109.9" xml:space="preserve">            `,-~==*oooCoooc+=~-^`.</text>
    <text x="110" y="2125.3" xml:space="preserve">           :,-=+*CCQ0Q0Q0QOCc+=-,,</text>
    <text x="110" y="2140.6" xml:space="preserve">          `,^~+coO0Cc+c+c*#QCc*=-,:</text>
    <text x="110" y="2156.0" xml:space="preserve">          .^~=+cCQ0:08&amp;&amp;#^C0Oo*=~-'</text>
    <text x="110" y="2171.3" xml:space="preserve">           ,^=*oCQ#c+Q%0c~#QOo*=-,`</text>
    <text x="110" y="2186.7" xml:space="preserve">           .^-=*oCO00*C*O0QCoc+-,'</text>
    <text x="110" y="2202.1" xml:space="preserve">            '^~=+*coCOOOCooc+=~~'.</text>
    <text x="110" y="2217.4" xml:space="preserve">             ',^-~+=*c**c+=~-^,,</text>
    <text x="110" y="2232.8" xml:space="preserve">               .:,---^-^-~^^,`</text>
    <text x="110" y="2248.1" xml:space="preserve">                    .. ^,</text>
    <text x="110" y="2263.5" xml:space="preserve">                       =.</text>
    <text x="110" y="2278.9" xml:space="preserve">                       +</text>
    <text x="110" y="2294.2" xml:space="preserve">                      ~`</text>
    <text x="110" y="2309.6" xml:space="preserve">                     .=</text>
    <text x="110" y="2324.9" xml:space="preserve">                     =</text>
    <text x="110" y="2340.3" xml:space="preserve">                    ,c.</text>
    <text x="110" y="2355.7" xml:space="preserve">                    =0O=.</text>
    <text x="110" y="2371.0" xml:space="preserve">                    'Coc+`</text>
    <text x="110" y="2386.4" xml:space="preserve">                    ~:~==-</text>
    <text x="110" y="2401.7" xml:space="preserve">                   -:  `,^`</text>
    <text x="110" y="2417.1" xml:space="preserve">                  ,       .</text>
  </g>
  <g clip-path="url(#winClip)" font-family="Consolas,'DejaVu Sans Mono','Liberation Mono','Courier New',monospace" font-size="24" fill="#1a1a1a" xml:space="preserve">
    <text x="532" y="327.6" xml:space="preserve">shazamifius@github ~ $ whoami</text>
    <text x="532" y="358.4" xml:space="preserve"></text>
    <text x="532" y="389.1" xml:space="preserve">  Je bricole des systèmes bas-niveau, faits main, en binôme avec l'IA.</text>
    <text x="532" y="419.8" xml:space="preserve">  Voici mes travaux en cours — vous pouvez les tester.</text>
    <text x="532" y="450.5" xml:space="preserve"></text>
    <text x="532" y="481.2" xml:space="preserve"></text>
    <text x="532" y="512.0" xml:space="preserve">shazamifius@github ~ $ cat web3game.md</text>
    <text x="532" y="542.7" xml:space="preserve"></text>
    <text x="532" y="573.4" xml:space="preserve">  ┌─[ web3game ]·· Rust · pair-à-pair</text>
    <text x="532" y="604.1" xml:space="preserve">  │</text>
    <text x="532" y="634.8" xml:space="preserve">  │   Un petit moteur P2P pour des mondes partagés massifs, sans</text>
    <text x="532" y="665.6" xml:space="preserve">  │   serveur de jeu central. Ni un produit, ni une promesse.</text>
    <text x="532" y="696.3" xml:space="preserve">  │</text>
    <text x="532" y="727.0" xml:space="preserve">  │   ( « web3 » ici = décentralisé, pair-à-pair. Pas de blockchain,</text>
    <text x="532" y="757.7" xml:space="preserve">  │     pas de token, pas de spéculation. La seule « crypto », c'est</text>
    <text x="532" y="788.4" xml:space="preserve">  │     la cryptographie : une clé = une identité, à toi seul. )</text>
    <text x="532" y="819.2" xml:space="preserve">  │</text>
    <text x="532" y="849.9" xml:space="preserve">  │   ce qui tient déjà, modestement</text>
    <text x="532" y="880.6" xml:space="preserve">  │     ├─ une identité que tu possèdes vraiment (clé Ed25519)</text>
    <text x="532" y="911.3" xml:space="preserve">  │     ├─ traversée NAT réelle + relais quand la box est fermée</text>
    <text x="532" y="942.0" xml:space="preserve">  │     ├─ un réseau qui se mesure et adapte sa redondance seul</text>
    <text x="532" y="972.8" xml:space="preserve">  │     ├─ anti-triche « Own + Shields », testé en s'attaquant soi-même</text>
    <text x="532" y="1003.5" xml:space="preserve">  │     └─ Bevy + Unreal réunis dans un même espace partagé</text>
    <text x="532" y="1034.2" xml:space="preserve">  │</text>
    <text x="532" y="1064.9" xml:space="preserve">  │   ce qu'il reste — et ce qui me fait douter</text>
    <text x="532" y="1095.6" xml:space="preserve">  │     ├─ rendre la foule vraiment vivante, ressentie</text>
    <text x="532" y="1126.4" xml:space="preserve">  │     ├─ passer l'échelle sans me mentir sur les chiffres</text>
    <text x="532" y="1157.1" xml:space="preserve">  │     └─ le seul test qui compte : deux humains, ensemble</text>
    <text x="532" y="1187.8" xml:space="preserve">  │</text>
    <text x="532" y="1218.5" xml:space="preserve">  │   la vision, tout au loin</text>
    <text x="532" y="1249.2" xml:space="preserve">  │     └─ un OASIS pair-à-pair… j'en suis loin, et je l'assume.</text>
    <text x="532" y="1280.0" xml:space="preserve">  │</text>
    <text x="532" y="1310.7" xml:space="preserve">  │   → github.com/shazamifius/web3game</text>
    <text x="532" y="1341.4" xml:space="preserve">  └───</text>
    <text x="532" y="1372.1" xml:space="preserve"></text>
    <text x="532" y="1402.8" xml:space="preserve"></text>
    <text x="532" y="1433.6" xml:space="preserve">shazamifius@github ~ $ cat glucose.md</text>
    <text x="532" y="1464.3" xml:space="preserve"></text>
    <text x="532" y="1495.0" xml:space="preserve">  ┌─[ Glucose ]·· TypeScript · Rust · CRDT</text>
    <text x="532" y="1525.7" xml:space="preserve">  │</text>
    <text x="532" y="1556.4" xml:space="preserve">  │   Un canvas infini pour poser ses idées à plat, et les relier.</text>
    <text x="532" y="1587.2" xml:space="preserve">  │   « Pose. Relie. Zoome. Explore. » — rien d'autre.</text>
    <text x="532" y="1617.9" xml:space="preserve">  │</text>
    <text x="532" y="1648.6" xml:space="preserve">  │   ce qui marche déjà</text>
    <text x="532" y="1679.3" xml:space="preserve">  │     ├─ toile infinie, notes reliées par flèches typées (du sens)</text>
    <text x="532" y="1710.0" xml:space="preserve">  │     ├─ 100% local · doc Automerge (CRDT) qu'on ne peut pas casser</text>
    <text x="532" y="1740.8" xml:space="preserve">  │     ├─ un serveur MCP fait main : l'IA lit la STRUCTURE, pas l'écran</text>
    <text x="532" y="1771.5" xml:space="preserve">  │     └─ une géométrie déterministe (même entrée = même sortie)</text>
    <text x="532" y="1802.2" xml:space="preserve">  │</text>
    <text x="532" y="1832.9" xml:space="preserve">  │   ce que je cherche encore</text>
    <text x="532" y="1863.6" xml:space="preserve">  │     ├─ pas « mieux » qu'une feuille de papier —</text>
    <text x="532" y="1894.4" xml:space="preserve">  │     │  une feuille au goût de 2026, son évolution</text>
    <text x="532" y="1925.1" xml:space="preserve">  │     └─ affiner, tout doux, le pont entre l'humain et l'IA</text>
    <text x="532" y="1955.8" xml:space="preserve">  │</text>
    <text x="532" y="1986.5" xml:space="preserve">  │   l'idée, au fond</text>
    <text x="532" y="2017.2" xml:space="preserve">  │     └─ un langage 2D entre l'espace latent de l'IA et l'œil</text>
    <text x="532" y="2048.0" xml:space="preserve">  │</text>
    <text x="532" y="2078.7" xml:space="preserve">  │   v1.0.1-beta.24 · MIT · bêta, encore en chantier</text>
    <text x="532" y="2109.4" xml:space="preserve">  │   → github.com/shazamifius/GlucoseGit</text>
    <text x="532" y="2140.1" xml:space="preserve">  └───</text>
    <text x="532" y="2170.8" xml:space="preserve"></text>
    <text x="532" y="2201.6" xml:space="preserve"></text>
    <text x="532" y="2232.3" xml:space="preserve">shazamifius@github ~ $ git log --numstat | activité</text>
    <text x="532" y="2263.0" xml:space="preserve"></text>
    <text x="532" y="2293.7" xml:space="preserve">  ┌─[ investissement ]·· lignes touchées (ajouts + suppressions)</text>
    <text x="532" y="2324.4" xml:space="preserve">  │</text>
    <text x="532" y="2355.2" xml:space="preserve">  │   tout-temps · privé + public .......... 316 687 lignes</text>
    <text x="532" y="2385.9" xml:space="preserve">  │   7 derniers jours · privé + public .... 24 865 lignes</text>
    <text x="532" y="2416.6" xml:space="preserve">  │</text>
    <text x="532" y="2447.3" xml:space="preserve">  │   projets publics</text>
    <text x="532" y="2478.0" xml:space="preserve">  │     web3game ~72k · Glucose ~61k · ultra-sync ~55k</text>
    <text x="532" y="2508.8" xml:space="preserve">  │     eegprev ~31k · VRchat-tracking ~23k · gogames ~16k</text>
    <text x="532" y="2539.5" xml:space="preserve">  │     simulateur ~8k</text>
    <text x="532" y="2570.2" xml:space="preserve">  │   privé (3 repos) · 51 405 lignes</text>
    <text x="532" y="2600.9" xml:space="preserve">  │</text>
    <text x="532" y="2631.6" xml:space="preserve">  │   au 2026-07-23 · recalculé tout seul, chaque jour (GitHub Action)</text>
    <text x="532" y="2662.4" xml:space="preserve">  └───</text>
    <text x="532" y="2693.1" xml:space="preserve"></text>
    <text x="532" y="2723.8" xml:space="preserve"></text>
    <text x="532" y="2754.5" xml:space="preserve">  shazamifius@github ~ $ █    encore en travail.</text>
  </g>
  <!-- /README page -->
</svg>
